HIERARCHY
ROOT Hips
{
	OFFSET -0.001795 -0.223333 0.028219
	CHANNELS 6 Xposition Yposition Zposition Zrotation Yrotation Xrotation 
	JOINT LeftUpLeg
	{
		OFFSET 0.069520 -0.091406 -0.006815
		CHANNELS 3 Zrotation Yrotation Xrotation
		JOINT LeftLeg
		{
			OFFSET 0.034277 -0.375199 -0.004496
			CHANNELS 3 Zrotation Yrotation Xrotation
			JOINT LeftFoot
			{
				OFFSET -0.013596 -0.397961 -0.043693
				CHANNELS 3 Zrotation Yrotation Xrotation
				JOINT LeftToe
				{
					OFFSET 0.026358 -0.055791 0.119288
					CHANNELS 3 Zrotation Yrotation Xrotation
					End Site
					{
						OFFSET 0.000000 0.000000 0.000000
					}
				}
			}
		}
	}
	JOINT RightUpLeg
	{
		OFFSET -0.067670 -0.090522 -0.004320
		CHANNELS 3 Zrotation Yrotation Xrotation
		JOINT RightLeg
		{
			OFFSET -0.038290 -0.382569 -0.008850
			CHANNELS 3 Zrotation Yrotation Xrotation
			JOINT RightFoot
			{
				OFFSET 0.015774 -0.398415 -0.042312
				CHANNELS 3 Zrotation Yrotation Xrotation
				JOINT RightToe
				{
					OFFSET -0.025372 -0.048144 0.123348
					CHANNELS 3 Zrotation Yrotation Xrotation
					End Site
					{
						OFFSET 0.000000 0.000000 0.000000
					}
				}
			}
		}
	}
	JOINT Spine
	{
		OFFSET -0.002533 0.108963 -0.026696
		CHANNELS 3 Zrotation Yrotation Xrotation
		JOINT Spine1
		{
			OFFSET 0.005487 0.135180 0.001092
			CHANNELS 3 Zrotation Yrotation Xrotation
			JOINT Spine2
			{
				OFFSET 0.001457 0.052922 0.025425
				CHANNELS 3 Zrotation Yrotation Xrotation
				JOINT Neck
				{
					OFFSET -0.002778 0.213870 -0.042857
					CHANNELS 3 Zrotation Yrotation Xrotation
					JOINT Head
					{
						OFFSET 0.005152 0.064970 0.051349
						CHANNELS 3 Zrotation Yrotation Xrotation
						End Site
						{
							OFFSET 0.000000 0.000000 0.000000
						}
					}
				}
				JOINT LeftShoulder
				{
					OFFSET 0.078845 0.121749 -0.034090
					CHANNELS 3 Zrotation Yrotation Xrotation
					JOINT LeftArm
					{
						OFFSET 0.090977 0.030469 -0.008868
						CHANNELS 3 Zrotation Yrotation Xrotation
						JOINT LeftForeArm
						{
							OFFSET 0.259612 -0.012772 -0.027456
							CHANNELS 3 Zrotation Yrotation Xrotation
							JOINT LeftHand
							{
								OFFSET 0.249234 0.008986 -0.001171
								CHANNELS 3 Zrotation Yrotation Xrotation
								End Site
								{
									OFFSET 0.000000 0.000000 0.000000
								}
							}
						}
					}
				}
				JOINT RightShoulder
				{
					OFFSET -0.081759 0.118833 -0.038615
					CHANNELS 3 Zrotation Yrotation Xrotation
					JOINT RightArm
					{
						OFFSET -0.096012 0.032551 -0.009143
						CHANNELS 3 Zrotation Yrotation Xrotation
						JOINT RightForeArm
						{
							OFFSET -0.253742 -0.013329 -0.021401
							CHANNELS 3 Zrotation Yrotation Xrotation
							JOINT RightHand
							{
								OFFSET -0.255298 0.007772 -0.005559
								CHANNELS 3 Zrotation Yrotation Xrotation
								End Site
								{
									OFFSET 0.000000 0.000000 0.000000
								}
							}
						}
					}
				}
			}
		}
	}
}
MOTION
Frames: 11
Frame Time: 0.050000
0.012791 0.709431 -0.045822 0.284406 8.839057 18.669392 21.664952 -9.055061 46.122037 -14.178283 -8.340878 -83.440949 77.537160 24.287141 120.464377 0.000000 0.000000 0.000000 -28.854518 4.961199 41.050500 22.240372 6.677954 -79.595667 -79.793233 -32.338277 117.823139 0.000000 0.000000 0.000000 -4.483136 -0.287425 -21.741853 13.410268 1.819688 -72.346822 -7.517733 6.116927 79.191784 7.329438 2.110670 -93.153292 0.000000 0.000000 0.000000 -21.999001 5.393684 -3.445483 -36.420254 -21.695204 -8.473131 -69.801227 71.469338 -51.886219 0.000000 0.000000 0.000000 -1.984836 -8.247510 -4.209808 34.393863 -16.109328 -14.654314 -114.356342 -38.928105 64.897524 0.000000 0.000000 0.000000 
0.012853 0.720650 -0.048014 -0.231388 7.995945 18.240997 20.890373 -8.394436 46.573427 -13.363706 -7.596171 -83.687763 74.518345 23.835156 120.930355 0.000000 0.000000 0.000000 -29.162244 5.271236 40.091192 23.270729 7.485443 -78.858928 -81.654267 -32.154416 118.615971 0.000000 0.000000 0.000000 -4.342842 -0.166060 -20.819394 15.226189 2.394558 -72.912125 -8.215949 7.261647 79.647833 9.177898 2.073884 -94.584928 0.000000 0.000000 0.000000 -22.462612 5.556660 -3.722323 -36.931981 -21.630665 -8.482226 -73.276066 70.258691 -53.749515 0.000000 0.000000 0.000000 -0.760206 -7.922355 -3.820375 35.701274 -14.260496 -14.867869 -118.046712 -40.574484 71.241264 0.000000 0.000000 0.000000 
0.013310 0.732919 -0.050512 -0.643377 7.393427 18.032441 20.149210 -7.637796 45.831220 -12.048593 -6.411680 -82.295634 70.384615 23.338928 121.228072 0.000000 0.000000 0.000000 -28.979046 5.236291 38.192535 23.430363 7.431622 -77.154149 -83.188729 -32.333142 118.855629 0.000000 0.000000 0.000000 -3.841883 -0.047013 -20.247176 16.117830 2.745953 -72.821172 -7.933010 8.008383 79.746756 9.586396 1.993628 -94.995472 0.000000 0.000000 0.000000 -22.286564 5.258666 -3.693947 -37.198163 -21.386433 -8.482982 -75.837352 69.147123 -55.126209 0.000000 0.000000 0.000000 0.175544 -8.179302 -3.761754 36.432552 -13.306271 -15.008274 -120.714908 -42.109294 76.980137 0.000000 0.000000 0.000000 
0.014089 0.740096 -0.053076 -0.604694 7.400366 18.521442 19.698737 -7.229337 44.553901 -11.382891 -5.899168 -81.055111 68.784425 23.673047 120.231196 0.000000 0.000000 0.000000 -28.676972 5.022436 36.831245 23.134723 7.008827 -76.455711 -83.599912 -32.339449 119.040478 0.000000 0.000000 0.000000 -3.762228 -0.025396 -19.992967 16.911162 2.898677 -72.947154 -7.901832 8.498260 79.991543 8.189919 2.113867 -96.084735 0.000000 0.000000 0.000000 -23.196265 5.950368 -4.425274 -37.992673 -21.303696 -8.635680 -76.429239 70.184777 -56.248784 0.000000 0.000000 0.000000 0.789471 -8.559230 -3.835377 37.029188 -13.602058 -15.436480 -123.649167 -42.739377 81.854738 0.000000 0.000000 0.000000 
0.014921 0.740960 -0.054896 -0.347037 7.891772 19.308939 19.467279 -7.218099 43.946254 -10.749089 -5.637189 -80.939714 66.355464 23.914942 119.259148 0.000000 0.000000 0.000000 -28.176392 4.718491 36.671605 22.289548 6.296329 -76.884605 -80.858062 -31.608987 119.418987 0.000000 0.000000 0.000000 -3.523325 -0.023437 -19.808381 16.738605 2.861332 -74.436370 -7.197473 8.646841 81.350933 5.929751 2.161299 -96.963896 0.000000 0.000000 0.000000 -22.693027 6.098034 -4.515116 -38.944653 -20.788185 -9.203785 -79.164982 72.235745 -60.049896 0.000000 0.000000 0.000000 0.530703 -9.097474 -4.189741 37.013654 -14.586605 -15.846005 -125.121904 -43.645855 85.076833 0.000000 0.000000 0.000000 
0.015474 0.735284 -0.055658 -0.171693 7.771619 20.153780 19.057478 -7.025556 44.080364 -9.837403 -5.038939 -81.781471 64.938552 23.935257 119.010444 0.000000 0.000000 0.000000 -28.318435 4.835111 36.752625 22.366689 6.401890 -77.600394 -79.054645 -31.939845 118.245375 0.000000 0.000000 0.000000 -2.986094 0.012556 -20.722732 16.706028 2.835046 -73.594668 -6.974016 9.058283 81.067450 5.976179 2.095268 -96.794199 0.000000 0.000000 0.000000 -22.014873 7.539873 -5.614692 -40.216408 -19.544542 -9.583668 -84.466153 75.366740 -67.707153 0.000000 0.000000 0.000000 0.197852 -10.084037 -4.716339 36.840894 -16.061720 -15.956709 -123.624608 -44.333667 84.654853 0.000000 0.000000 0.000000 
0.015657 0.722959 -0.055639 0.088232 8.305617 20.958398 19.190269 -7.456527 44.982459 -9.371209 -4.894603 -82.932528 62.738625 24.672446 117.045759 0.000000 0.000000 0.000000 -28.693933 4.923502 38.159065 23.138828 6.996430 -79.589381 -77.818685 -32.936396 116.050083 0.000000 0.000000 0.000000 -3.238484 -0.053207 -20.900861 16.796184 2.643363 -73.257310 -7.002021 9.251848 80.781947 6.575978 2.024506 -96.854617 0.000000 0.000000 0.000000 -22.027150 9.062616 -6.899784 -41.246558 -18.180540 -10.041019 -93.559581 78.734920 -79.600103 0.000000 0.000000 0.000000 0.942462 -11.448396 -5.221301 36.336763 -17.777899 -16.132276 -122.098507 -45.676644 84.860605 0.000000 0.000000 0.000000 
0.015449 0.709866 -0.055369 0.331588 8.446731 21.662979 18.927526 -7.526855 45.768731 -8.705099 -4.528906 -84.359980 64.227586 25.026396 116.652935 0.000000 0.000000 0.000000 -28.471985 4.895880 39.140824 23.208416 7.282271 -81.550931 -77.727504 -33.510917 114.909343 0.000000 0.000000 0.000000 -3.268882 -0.097756 -21.780871 16.686021 2.534003 -72.343057 -6.937799 9.168353 80.690458 5.563482 2.090185 -97.026457 0.000000 0.000000 0.000000 -22.336485 10.038351 -7.727779 -41.456495 -17.898391 -10.147419 -109.152426 80.871617 -97.402948 0.000000 0.000000 0.000000 0.605742 -12.173871 -5.664232 36.479303 -19.394839 -16.547721 -121.003832 -47.094382 85.916834 0.000000 0.000000 0.000000 
0.015296 0.696106 -0.055260 0.422041 8.489448 22.442804 19.259327 -7.915362 46.741534 -8.638201 -4.490995 -86.212370 64.110395 25.429595 115.976363 0.000000 0.000000 0.000000 -29.126568 5.230494 40.398069 24.319357 8.334280 -83.310086 -76.185607 -34.257658 112.819614 0.000000 0.000000 0.000000 -3.127093 -0.109567 -22.412258 17.268413 2.777232 -73.754467 -7.139946 10.376017 82.628649 5.866736 2.053655 -97.509911 0.000000 0.000000 0.000000 -22.424863 11.672537 -9.124098 -42.434503 -16.457352 -11.160786 -134.972387 84.469558 -127.347649 0.000000 0.000000 0.000000 0.202575 -13.841254 -6.666856 37.293197 -21.471630 -17.559941 -118.893855 -46.129501 83.688625 0.000000 0.000000 0.000000 
0.015281 0.687783 -0.055377 0.560231 8.600511 22.780171 19.248277 -8.015966 47.003145 -8.203409 -4.228062 -86.907223 65.197552 25.686265 115.714858 0.000000 0.000000 0.000000 -29.703081 5.433392 40.808166 25.022479 8.927579 -84.137354 -76.912951 -35.124017 111.578113 0.000000 0.000000 0.000000 -2.934311 -0.131074 -23.114785 16.637383 2.679782 -73.497786 -6.754139 9.915809 83.405681 4.853332 2.146328 -98.789123 0.000000 0.000000 0.000000 -23.134716 12.396222 -9.637995 -42.573479 -16.532428 -11.593419 -170.356916 84.542720 -164.711554 0.000000 0.000000 0.000000 -0.187350 -14.670405 -7.252410 37.403814 -23.327369 -18.261067 -117.934467 -46.963172 83.853434 0.000000 0.000000 0.000000 
0.015537 0.683141 -0.055841 0.765801 8.656824 22.995823 19.685771 -8.308780 47.039068 -8.925362 -4.816955 -87.720563 66.292586 25.964039 115.505041 0.000000 0.000000 0.000000 -30.428152 5.657651 40.747613 25.522989 9.327429 -84.668325 -78.842996 -35.115482 112.364297 0.000000 0.000000 0.000000 -2.904218 -0.141136 -23.154467 17.348993 2.928347 -74.712146 -6.639718 11.200247 84.850719 3.682936 2.132262 -98.876126 0.000000 0.000000 0.000000 -22.964665 13.112008 -10.556175 -42.885757 -16.812615 -11.737835 167.417753 81.875499 170.395302 0.000000 0.000000 0.000000 -1.047859 -15.773933 -8.097733 37.637057 -25.880774 -18.859264 -115.645618 -47.356922 82.425732 0.000000 0.000000 0.000000 
